<?xml version="1.0" standalone="yes"?>
<svg xmlns="http://www.w3.org/2000/svg" width="1000" height="1000">
<path style="fill:black; stroke:none;" d="M267 248L556 248L556 436L556 468L556 479L556.044 483L556.228 484.996L556.742 486.956L557.179 487.891L557.742 488.772L559.228 490.258L561.044 491.258L562.015 491.566L563.004 491.768L564.001 491.876L565 491.912L566.996 491.768L568.956 491.258L569.891 490.821L570.772 490.258L572.258 488.772L573.258 486.956L573.772 484.996L573.956 483L574 478L574 434L574 290L574 251L574 245L573.996 241C573.964 238.678 573.997 236.197 572.821 234.109L571.566 232.434L570.772 231.742L568.956 230.742L566.996 230.228L565 230.044L562 230.001L554 230L500 230L322 230L273 230L261 230.001C259.67 230.008 258.326 229.975 257.001 230.109C255.652 230.245 254.305 230.506 253.109 231.179L251.434 232.434L250.742 233.228L249.742 235.044L249.228 237.004L249.044 239L249.004 241L249 245L249 281L249 436L249 478L249.044 483L249.228 484.996L249.742 486.956L250.742 488.772L251.434 489.566L253.109 490.821L254.044 491.258L255.015 491.566L257.001 491.876L258.999 491.876L259.996 491.768L261.956 491.258L262.891 490.821L263.772 490.258L265.258 488.772L266.258 486.956L266.772 484.996L266.956 483L266.999 480L267 475L267 465L267 436L267 248M281.044 258.742L279.228 259.742L278.434 260.434L277.179 262.109L276.434 264.015L276.124 266.001L276.124 267.999L276.232 268.996L276.742 270.956L277.742 272.772L278.434 273.566L279.228 274.258L281.044 275.258L282.015 275.566L283.004 275.772L284.001 275.891L286 275.985L289 276L293 276L317 276L480 276L526 276L532 276L535 275.996C536.003 275.982 536.998 275.961 537.999 275.891L538.996 275.772L540.956 275.258L542.772 274.258L543.566 273.566L544.821 271.891L545.258 270.956L545.566 269.985L545.768 268.996L545.876 267.999L545.876 266.001C545.738 264.298 545.304 262.613 544.258 261.228L542.772 259.742L541.891 259.179L540.956 258.742L538.996 258.228L537 258.044L533 258L523 258L491 258L343 258L300 258L288 258.001C286.67 258.008 285.326 257.975 284.001 258.109C283 258.21 281.983 258.36 281.044 258.742M123 466.428L120 466.92C116.649 467.475 113.297 468.067 110 468.895C107.293 469.575 104.646 470.451 102 471.333C99.9888 472.004 97.966 472.657 96 473.453C94.2964 474.143 92.6497 474.949 91 475.756L87 477.753C85.3269 478.592 83.6406 479.41 82 480.312C79.9356 481.446 77.9456 482.701 76 484.029C73.2486 485.905 70.6032 487.928 68 490.004C65.9483 491.64 63.921 493.3 62 495.09C60.9826 496.037 59.9918 497.015 59.0147 498.004C58.0468 498.983 57.0921 499.976 56.1705 501C54.4346 502.928 52.8152 504.962 51.2106 507C48.9195 509.91 46.7021 512.883 44.6983 516C43.8591 517.305 43.0472 518.633 42.3117 520C41.0717 522.305 39.9213 524.658 38.7531 527C37.6016 529.309 36.4225 531.607 35.4529 534C34.6565 535.966 34.0038 537.989 33.3333 540C32.5603 542.319 31.7851 544.637 31.1551 547C30.3651 549.963 29.7746 552.98 29.25 556L28.5903 560C28.4308 560.998 28.2671 561.994 28.1698 563C27.9768 564.994 28.0032 566.999 28 569L28 576L28 583C28.0027 584.665 27.975 586.337 28.0895 588C28.2285 590.018 28.5904 592.007 28.9198 594C29.5297 597.691 30.1904 601.382 31.1551 605C31.7851 607.363 32.5603 609.681 33.3333 612C34.1187 614.356 34.8944 616.715 35.8727 619C36.4533 620.356 37.1038 621.678 37.7562 623L39.7531 627C40.5922 628.674 41.4246 630.351 42.3117 632C42.8603 633.02 43.4552 634.016 44.0656 635C46.6758 639.207 49.6947 643.154 52.8048 647C53.8998 648.354 54.9933 649.716 56.1705 651C58.3451 653.373 60.6074 655.675 63 657.829C64.9282 659.566 66.9622 661.185 69 662.789C72.5232 665.564 76.144 668.248 80 670.547C82.2694 671.9 84.6399 673.064 87 674.247L91 676.244C92.6497 677.051 94.2964 677.857 96 678.547C97.966 679.343 99.9888 679.996 102 680.667C104.319 681.44 106.637 682.215 109 682.845C111.963 683.635 114.98 684.225 118 684.75L122 685.41C122.998 685.569 123.994 685.733 125 685.83C126.994 686.023 128.999 685.997 131 686L139 686L145 686C147.001 685.997 149.006 686.023 151 685.83C152.677 685.668 154.339 685.355 156 685.08C159.352 684.526 162.703 683.933 166 683.105C168.366 682.511 170.685 681.764 173 680.999C175.69 680.111 178.394 679.243 181 678.127C182.356 677.547 183.678 676.896 185 676.244L189 674.247C190.674 673.408 192.351 672.575 194 671.688C195.02 671.14 196.016 670.545 197 669.934C200.484 667.773 203.781 665.324 207 662.789C209.038 661.185 211.072 659.566 213 657.829C214.024 656.908 215.017 655.953 215.996 654.985C216.985 654.008 217.963 653.017 218.91 652C220.989 649.768 222.904 647.395 224.789 645C228.038 640.874 231.155 636.61 233.688 632C234.59 630.359 235.41 628.674 236.247 627L237.742 624L238.688 622L239.532 620C239.87 619.009 240.269 618.033 240.47 617L240.667 616L240.863 614L240.757 612.004L240.257 610.044L239.821 609.109L238.566 607.434L236.891 606.179L235.956 605.742L234.985 605.434L232.999 605.124L231 605.124L229.004 605.434L227.043 606.179L226.105 606.742L224.39 608.228C223.327 609.338 222.537 610.669 221.796 612.004C221.069 613.314 220.43 614.67 219.742 616L218.691 618C217.95 619.348 217.179 620.676 216.396 622C215.598 623.349 214.782 624.691 213.921 626C212.559 628.073 211.082 630.059 209.539 632C208.724 633.026 207.854 634.008 206.999 634.999L205.271 636.985C204.431 637.944 203.604 638.916 202.715 639.83C201.228 641.357 199.603 642.733 197.996 644.13C196.676 645.279 195.37 646.45 194 647.539C192.373 648.832 190.718 650.084 189 651.254C187.053 652.579 185.032 653.799 183 654.988L180 656.691L177 658.241C175.357 659.062 173.703 659.857 172 660.547C170.686 661.079 169.344 661.547 168 661.996C166.341 662.55 164.679 663.083 163 663.573L160 664.37C158.34 664.795 156.677 665.2 155 665.551C153.676 665.828 152.334 666.025 151 666.246C149.671 666.467 148.341 666.7 147 666.83C145.67 666.959 144.336 666.984 143 666.996L139 667L134 666.999C132.331 666.991 130.663 666.991 129 666.83C127.659 666.7 126.329 666.467 125 666.246C123.666 666.025 122.324 665.828 121 665.551C119.323 665.2 117.66 664.795 116 664.37L113 663.573C111.321 663.083 109.659 662.55 108 661.996C106.656 661.547 105.314 661.079 104 660.547C102.297 659.857 100.643 659.062 99 658.241L96 656.691L93 654.988C90.6173 653.594 88.2569 652.153 86 650.561C84.6348 649.598 83.2991 648.59 82 647.539L79.0008 644.999L75.0895 641.575L74.1698 640.714L72.4252 638.911L69.8696 635.996C68.7222 634.673 67.5619 633.362 66.4606 632C65.4101 630.701 64.4022 629.365 63.439 628C61.8468 625.743 60.4064 623.383 59.0116 621L57.3086 618L55.7593 615C54.9385 613.357 54.1427 611.703 53.4529 610C52.9206 608.686 52.4526 607.344 52.0039 606C51.4503 604.341 50.9173 602.679 50.4275 601C50.0415 599.677 49.7077 598.337 49.375 597C49.0446 595.672 48.7185 594.342 48.4491 593C48.1827 591.673 47.9753 590.335 47.7539 589C47.5334 587.671 47.2996 586.341 47.1698 585C47.0088 583.337 47.0114 581.669 47.0008 580L47 576L47.0008 572C47.0114 570.331 47.0088 568.663 47.1698 567C47.2996 565.658 47.5334 564.329 47.7539 563C47.9752 561.666 48.1717 560.324 48.4491 559C48.8004 557.323 49.2049 555.66 49.6296 554L50.4275 551C50.9172 549.322 51.443 547.656 52.0039 546C52.5753 544.313 53.1712 542.638 53.8727 541C54.4531 539.645 55.0944 538.315 55.7593 537L57.3086 534L59.0116 531C60.4064 528.617 61.8468 526.257 63.439 524C64.4022 522.635 65.4101 521.299 66.4606 520L69.0008 517.001L70.7292 515.015C71.8451 513.74 72.9549 512.468 74.1698 511.285C75.3958 510.092 76.7121 508.99 78.0039 507.87L81 505.285C81.9814 504.467 82.9803 503.67 84 502.9C85.3005 501.917 86.6301 500.963 88 500.079C89.6429 499.018 91.3125 497.999 93 497.012L96 495.309L99 493.759C100.316 493.094 101.645 492.453 103 491.873C104.638 491.171 106.313 490.575 108 490.004C109.656 489.443 111.322 488.917 113 488.427L116 487.63C117.66 487.205 119.323 486.8 121 486.449C122.324 486.172 123.666 485.975 125 485.754C126.329 485.533 127.659 485.3 129 485.17C130.331 485.041 131.664 485.016 133 485.004L137 485L142 485.001C143.669 485.009 145.337 485.009 147 485.17C148.676 485.332 150.34 485.641 152 485.921L155 486.449C156.677 486.801 158.339 487.21 160 487.63C161.34 487.968 162.675 488.326 164 488.721C165.342 489.121 166.673 489.556 168 490.004C169.343 490.457 170.685 490.92 172 491.453C173.703 492.143 175.357 492.938 177 493.759L180 495.309L183 497.012C185.383 498.406 187.743 499.847 190 501.439C191.365 502.402 192.701 503.41 194 504.461C195.362 505.562 196.675 506.72 197.996 507.87L200.91 510.425L202.715 512.17L204.421 514.039L206.13 516.004C207.559 517.647 208.99 519.284 210.332 521C211.349 522.301 212.325 523.635 213.254 525C213.923 525.984 214.559 526.989 215.186 528C216.407 529.969 217.563 531.976 218.691 534L219.742 536C220.43 537.33 221.069 538.687 221.796 539.996C222.537 541.331 223.327 542.662 224.39 543.772L226.105 545.258L228.015 546.258L230.001 546.768L232 546.912L232.999 546.876L233.996 546.768L235.956 546.258L237.772 545.258L238.566 544.566L239.821 542.891L240.562 540.985L240.851 538.999L240.799 537L240.47 535L240.211 534L239.532 532C239.146 530.979 238.683 529.987 238.218 529L236.247 525C235.066 522.639 233.9 520.269 232.547 518C230.248 514.144 227.564 510.523 224.789 507C223.185 504.962 221.566 502.928 219.829 501C218.908 499.977 217.953 498.983 216.985 498.004C215.69 496.693 214.37 495.404 213 494.171C211.072 492.434 209.038 490.815 207 489.211C203.477 486.436 199.856 483.752 196 481.453C194.371 480.482 192.688 479.618 191 478.756L187 476.753C184.691 475.602 182.393 474.422 180 473.453C178.034 472.657 176.011 472.004 174 471.333C171.681 470.56 169.363 469.785 167 469.155C164.037 468.365 161.02 467.775 158 467.25L154 466.59C153.002 466.431 152.006 466.267 151 466.17C149.006 465.977 147.001 466.003 145 466L138 466L131 466C129.332 466.003 127.666 465.999 126 466.089C124.994 466.144 123.997 466.286 123 466.428M430 466.428L427 466.92C423.649 467.475 420.297 468.067 417 468.895C414.293 469.575 411.646 470.451 409 471.333C406.989 472.004 404.966 472.656 403 473.453C401.296 474.143 399.65 474.949 398 475.756L394 477.753C392.327 478.592 390.641 479.41 389 480.312C386.936 481.446 384.946 482.701 383 484.029C380.249 485.905 377.603 487.928 375 490.004C372.948 491.64 370.921 493.3 369 495.09C367.983 496.037 366.992 497.015 366.015 498.004C365.047 498.983 364.092 499.976 363.171 501C361.434 502.928 359.815 504.962 358.211 507C355.919 509.91 353.702 512.883 351.698 516C350.859 517.306 350.047 518.633 349.312 520C348.072 522.305 346.921 524.658 345.753 527C344.602 529.309 343.422 531.607 342.453 534C341.657 535.966 341.004 537.989 340.333 540C339.56 542.319 338.785 544.637 338.155 547C337.365 549.963 336.775 552.98 336.25 556L335.59 560C335.431 560.998 335.267 561.994 335.17 563C334.977 564.994 335.003 566.999 335 569L335 576L335 583C335.003 584.665 334.975 586.337 335.09 588C335.228 590.018 335.59 592.007 335.92 594C336.53 597.691 337.19 601.382 338.155 605C338.785 607.363 339.56 609.681 340.333 612C341.119 614.356 341.894 616.716 342.873 619C343.453 620.356 344.104 621.678 344.756 623L346.753 627C347.592 628.674 348.425 630.351 349.312 632C349.86 633.02 350.455 634.016 351.066 635C353.676 639.207 356.695 643.154 359.805 647C360.9 648.354 361.993 649.716 363.171 651C365.345 653.373 367.607 655.675 370 657.829C371.928 659.566 373.962 661.185 376 662.789C379.523 665.564 383.144 668.248 387 670.547C389.269 671.9 391.64 673.064 394 674.247L398 676.244C399.65 677.051 401.296 677.857 403 678.547C404.966 679.343 406.989 679.996 409 680.667C411.319 681.44 413.637 682.215 416 682.845C418.963 683.635 421.98 684.225 425 684.75L429 685.41C429.998 685.569 430.994 685.733 432 685.83C433.994 686.023 435.999 685.997 438 686L446 686L452 686C454.001 685.997 456.006 686.023 458 685.83C459.677 685.668 461.339 685.355 463 685.08C466.352 684.526 469.703 683.933 473 683.105C475.366 682.511 477.685 681.764 480 680.999C482.689 680.111 485.394 679.243 488 678.127C489.356 677.547 490.678 676.896 492 676.244L496 674.247C497.674 673.408 499.351 672.575 501 671.688C502.02 671.14 503.016 670.545 504 669.934C507.484 667.773 510.781 665.324 514 662.789C516.038 661.185 518.072 659.566 520 657.829C521.023 656.908 522.017 655.953 522.996 654.985C523.985 654.008 524.963 653.018 525.911 652C527.989 649.768 529.904 647.395 531.789 645C535.038 640.874 538.155 636.61 540.688 632C541.59 630.359 542.41 628.674 543.247 627L544.742 624L545.688 622L546.532 620C546.87 619.009 547.269 618.033 547.47 617L547.667 616L547.863 614L547.757 612.004L547.257 610.044L546.821 609.109L545.566 607.434L543.891 606.179L542.956 605.742L541.985 605.434L539.999 605.124L538 605.124L536.004 605.434L534.043 606.179L533.105 606.742L531.39 608.228C530.327 609.338 529.537 610.669 528.796 612.004C528.069 613.314 527.43 614.67 526.742 616L525.691 618C524.95 619.348 524.179 620.676 523.396 622C522.598 623.349 521.782 624.69 520.921 626C519.559 628.073 518.082 630.059 516.539 632C515.724 633.026 514.854 634.007 513.999 634.999L512.271 636.985C511.431 637.944 510.604 638.916 509.715 639.83C508.228 641.357 506.603 642.733 504.996 644.13C503.676 645.279 502.37 646.45 501 647.539C499.373 648.832 497.718 650.084 496 651.254C494.053 652.579 492.032 653.799 490 654.988L487 656.691L484 658.241C482.357 659.062 480.703 659.857 479 660.547C477.686 661.079 476.345 661.547 475 661.996C473.341 662.55 471.679 663.083 470 663.573L467 664.37C465.34 664.795 463.677 665.2 462 665.551C460.676 665.828 459.334 666.025 458 666.246C456.671 666.467 455.341 666.7 454 666.83C452.67 666.959 451.336 666.984 450 666.996L446 667L441 666.999C439.331 666.991 437.663 666.991 436 666.83C434.659 666.7 433.329 666.467 432 666.246C430.666 666.025 429.324 665.828 428 665.551C426.323 665.2 424.66 664.795 423 664.37L420 663.573C418.321 663.083 416.659 662.55 415 661.996C413.656 661.547 412.314 661.079 411 660.547C409.297 659.857 407.643 659.062 406 658.241L403 656.691L400 654.988C397.617 653.594 395.257 652.153 393 650.561C391.635 649.598 390.299 648.59 389 647.539L386.001 644.999L382.09 641.575L381.17 640.714L379.425 638.911L376.87 635.996C375.722 634.673 374.562 633.362 373.461 632C372.41 630.701 371.402 629.365 370.439 628C368.847 625.743 367.406 623.383 366.012 621L364.309 618L362.759 615C361.938 613.357 361.143 611.703 360.453 610C359.921 608.686 359.453 607.344 359.004 606C358.45 604.341 357.917 602.679 357.427 601C357.042 599.677 356.708 598.337 356.375 597C356.045 595.672 355.718 594.342 355.449 593C355.183 591.673 354.975 590.335 354.754 589C354.533 587.672 354.3 586.341 354.17 585C354.009 583.337 354.011 581.669 354.001 580L354 576L354.001 572C354.011 570.331 354.009 568.663 354.17 567C354.3 565.659 354.533 564.329 354.754 563C354.975 561.666 355.172 560.324 355.449 559C355.8 557.323 356.205 555.66 356.63 554L357.427 551C357.917 549.322 358.443 547.656 359.004 546C359.575 544.313 360.171 542.638 360.873 541C361.453 539.645 362.094 538.315 362.759 537L364.309 534L366.012 531C366.999 529.312 368.018 527.643 369.079 526C369.963 524.63 370.917 523.3 371.9 522C372.671 520.98 373.466 519.982 374.285 519L376.87 516.004C377.99 514.712 379.092 513.396 380.285 512.17C381.468 510.955 382.74 509.845 384.015 508.729L386.001 507.001L389 504.461C390.299 503.41 391.635 502.402 393 501.439C395.257 499.847 397.617 498.406 400 497.012L403 495.309L406 493.759C407.316 493.094 408.645 492.453 410 491.873C411.638 491.171 413.313 490.575 415 490.004C416.656 489.443 418.322 488.917 420 488.427L423 487.63C424.66 487.205 426.323 486.8 428 486.449C429.324 486.172 430.666 485.975 432 485.754C433.329 485.533 434.659 485.3 436 485.17C437.331 485.041 438.664 485.016 440 485.004L444 485L449 485.001C450.669 485.009 452.337 485.009 454 485.17C455.676 485.332 457.34 485.641 459 485.921L462 486.449C463.677 486.801 465.339 487.21 467 487.63C468.34 487.968 469.675 488.326 471 488.721C472.342 489.121 473.673 489.556 475 490.004C476.343 490.457 477.685 490.92 479 491.453C480.703 492.143 482.357 492.938 484 493.759L487 495.309L490 497.012C492.383 498.406 494.743 499.847 497 501.439C498.365 502.402 499.701 503.41 501 504.461C502.362 505.562 503.675 506.721 504.996 507.87L507.91 510.425L509.715 512.17L511.421 514.039L513.13 516.004C514.559 517.647 515.99 519.284 517.332 521C518.349 522.301 519.325 523.635 520.254 525C520.924 525.984 521.559 526.989 522.186 528C523.407 529.969 524.563 531.976 525.691 534L526.742 536C527.43 537.33 528.069 538.687 528.796 539.996C529.537 541.331 530.327 542.662 531.39 543.772L533.105 545.258L535.015 546.258L537.001 546.768L539 546.912L539.999 546.876L540.996 546.768L542.956 546.258L544.772 545.258L545.566 544.566L546.821 542.891L547.562 540.985L547.851 538.999L547.799 537L547.47 535L547.211 534L546.532 532C546.146 530.979 545.683 529.987 545.218 529L543.247 525C542.066 522.639 540.9 520.269 539.547 518C537.248 514.144 534.563 510.523 531.789 507C530.185 504.962 528.565 502.928 526.829 501C525.596 499.63 524.307 498.31 522.996 497.015C522.016 496.047 521.024 495.092 520 494.171C518.072 492.435 516.038 490.815 514 489.211C510.477 486.436 506.856 483.752 503 481.453C501.371 480.482 499.688 479.618 498 478.756L494 476.753C491.691 475.602 489.393 474.422 487 473.453C485.034 472.656 483.011 472.004 481 471.333C478.681 470.56 476.362 469.785 474 469.155C471.037 468.365 468.02 467.775 465 467.25L461 466.59C460.002 466.431 459.006 466.267 458 466.17C456.006 465.977 454.001 466.003 452 466L445 466L438 466C436.332 466.003 434.666 465.999 433 466.089C431.994 466.144 430.997 466.286 430 466.428M574 608L574 580L574 561L573.996 558L573.956 556L573.772 554.004L573.566 553.015L572.821 551.109L571.566 549.434L569.891 548.179L567.985 547.434L566.996 547.232L565.999 547.124L564.001 547.124C562.298 547.262 560.613 547.696 559.228 548.742L557.742 550.228L557.179 551.109L556.742 552.044L556.434 553.015L556.109 555.001C556.039 556.002 556.018 556.997 556.004 558L556 564L556 584L556 651L556 667L556 673L556.015 676L556.109 677.999L556.228 678.996L556.434 679.985L557.179 681.891L558.434 683.566L560.109 684.821L562.015 685.566C562.993 685.836 563.994 685.876 565 685.912L565.999 685.876L567.985 685.566L568.956 685.258L569.891 684.821L571.566 683.566L572.821 681.891L573.566 679.985L573.891 677.999C573.961 676.998 573.982 676.003 573.996 675L574 669L574 650L574.004 645C574.02 643.666 574.025 642.327 574.185 641C574.308 639.984 574.505 638.983 574.789 638L575.483 636L575.92 635L576.417 634L577.649 632L578.394 631.001L580.105 629.015C582.122 626.842 584.384 624.84 587 623.417L589 622.483L590 622.109L591 621.789L593 621.329L594 621.185C595.001 621.091 595.994 621.029 597 621.029C598.337 621.029 599.68 621.1 601 621.329C602.369 621.566 603.714 621.957 605 622.483L607 623.417L609 624.649L610.996 626.214C612.357 627.378 613.591 628.672 614.786 630.004L616.351 632L617.005 633L617.583 634L618.08 635L618.891 637C619.339 638.288 619.68 639.64 619.815 641L619.96 643L619.999 646L620 650L620 670L620.004 675C620.011 676.003 620.039 676.999 620.109 677.999L620.228 678.996L620.742 680.956L621.179 681.891L622.434 683.566L624.109 684.821L625.044 685.258L626.015 685.566L627.004 685.768L628.001 685.876L629.999 685.876C631.702 685.738 633.387 685.304 634.772 684.258L636.258 682.772L637.258 680.956L637.772 678.996L637.956 677L637.999 674L638 666L638 652L638 640L637.985 636C637.957 634.662 637.903 633.321 637.671 632C637.367 630.267 636.8 628.619 636.123 627C635.698 625.982 635.214 624.99 634.727 624L633.662 622L632.452 620C631.802 618.961 631.057 617.981 630.319 617.004C629.551 615.986 628.711 615.009 627.826 614.09C626.643 612.86 625.359 611.71 623.996 610.681C623.019 609.943 622.039 609.198 621 608.548L619 607.338C618.012 606.795 617.017 606.273 616 605.786C614.693 605.159 613.365 604.58 612 604.09C611.012 603.736 610.009 603.445 609 603.159C608.016 602.88 607.007 602.646 606 602.464L604 602.174L602 602.039L597 602C594.664 602 592.329 601.968 590 602.174C588.652 602.292 587.313 602.581 586 602.9C584.298 603.313 582.64 603.849 581.002 604.463L580.005 604.874L579.025 605.302L577.16 606.2L575.671 606.99L574 608M875 608L873.329 607.339L872.841 607.1L871.84 606.654C870.237 605.899 868.652 605.109 867 604.464C865.692 603.953 864.355 603.525 863 603.159C862.01 602.892 861.009 602.646 860 602.464L858 602.174L856 602.039L851 602L846 602.039L844 602.174L842 602.464C840.993 602.646 839.984 602.88 839 603.159C837.991 603.445 836.988 603.736 836 604.09C834.635 604.58 833.307 605.159 832 605.786C830.984 606.273 829.988 606.796 829 607.338L827 608.548C825.962 609.198 824.981 609.943 824.004 610.681C822.641 611.71 821.357 612.86 820.174 614.09C819.289 615.009 818.449 615.986 817.681 617.004C816.943 617.981 816.198 618.961 815.548 620L814.338 622C813.795 622.988 813.273 623.983 812.786 625C812.159 626.307 811.58 627.635 811.09 629C810.736 629.988 810.445 630.991 810.159 632C809.788 633.309 809.494 634.654 809.3 636C808.919 638.645 809 641.335 809 644C809 646.665 808.919 649.355 809.3 652C809.494 653.346 809.788 654.691 810.159 656C810.445 657.009 810.736 658.012 811.09 659C811.58 660.365 812.159 661.693 812.786 663L813.796 665L814.338 666L815.548 668L816.927 669.999C817.689 671.011 818.457 672.015 819.301 672.961C823.065 677.176 827.872 680.369 833 682.687C834.944 683.565 836.941 684.284 839 684.841C839.993 685.11 840.992 685.333 842 685.536L843 685.7L845 685.91C845.998 685.983 847 685.987 848 685.996L852 686L856 685.961L858 685.826C859.348 685.707 860.687 685.419 862 685.1C863.697 684.688 865.373 684.173 867 683.536C868.711 682.867 870.382 682.073 872 681.204C873.021 680.656 874.026 680.082 875 679.452C876.031 678.784 877.016 678.059 877.996 677.319C879.014 676.551 879.991 675.711 880.91 674.826C882.14 673.642 883.29 672.359 884.319 670.996C885.059 670.017 885.785 669.031 886.452 668C887.082 667.027 887.656 666.021 888.204 665C889.073 663.382 889.867 661.711 890.536 660C891.173 658.373 891.688 656.697 892.1 655C892.419 653.687 892.708 652.348 892.826 651L892.961 649L893 644L893 633L893 594L893 560L892.956 556L892.891 555.001L892.566 553.015L891.821 551.109L890.566 549.434L889.772 548.742L887.956 547.742L885.996 547.232L884.999 547.124L884 547.088L882.004 547.232L880.044 547.742L878.228 548.742L876.742 550.228L875.742 552.044L875.434 553.015L875.109 555.001C874.997 555.991 875.014 557.005 875.004 558L875 562L875 573L875 608M281 602.464C279.994 602.646 278.984 602.88 278 603.159C276.993 603.444 275.981 603.722 275 604.09L274 604.464C272.644 605.018 271.307 605.61 270 606.273C268.631 606.967 267.289 607.714 266 608.548C264.969 609.215 263.983 609.941 263.004 610.681C261.641 611.71 260.357 612.86 259.174 614.09C258.29 615.009 257.449 615.986 256.681 617.004C255.943 617.981 255.198 618.961 254.548 620L253.338 622C252.795 622.988 252.273 623.983 251.785 625C251.159 626.307 250.58 627.635 250.09 629C249.736 629.988 249.445 630.991 249.159 632C248.788 633.308 248.494 634.654 248.3 636C247.919 638.646 248 641.335 248 644C248 646.665 247.919 649.354 248.3 652C248.494 653.346 248.788 654.692 249.159 656C249.445 657.009 249.736 658.012 250.09 659C250.58 660.365 251.159 661.693 251.785 663C252.272 664.015 252.782 665.021 253.338 666C254.122 667.382 254.988 668.718 255.927 669.999C257.186 671.716 258.556 673.35 260.09 674.826C261.009 675.71 261.986 676.551 263.004 677.319C263.981 678.057 264.961 678.802 266 679.452L268 680.662C268.988 681.205 269.983 681.727 271 682.214C272.307 682.841 273.635 683.42 275 683.91C275.988 684.264 276.991 684.555 278 684.841C278.984 685.12 279.993 685.354 281 685.536L283 685.826L285 685.961L290 686L295 685.961L297 685.826L299 685.536C300.007 685.354 301.016 685.12 302 684.841C303.007 684.556 304.019 684.278 305 683.91L306 683.536C307.356 682.982 308.693 682.39 310 681.727C311.368 681.033 312.712 680.286 314 679.452C315.031 678.785 316.017 678.059 316.996 677.319C318.359 676.29 319.643 675.14 320.826 673.91C321.71 672.991 322.551 672.014 323.319 670.996C324.057 670.019 324.802 669.039 325.452 668L326.662 666C327.205 665.012 327.727 664.017 328.215 663C328.841 661.693 329.42 660.365 329.91 659C330.264 658.012 330.555 657.009 330.841 656C331.212 654.691 331.506 653.346 331.7 652C332.081 649.354 332 646.665 332 644C332 641.335 332.081 638.646 331.7 636C331.506 634.654 331.212 633.309 330.841 632C330.555 630.991 330.264 629.988 329.91 629C329.42 627.635 328.841 626.307 328.215 625C327.728 623.985 327.218 622.979 326.662 622C325.878 620.618 325.012 619.282 324.073 618.001C322.814 616.284 321.444 614.65 319.91 613.174C318.991 612.29 318.014 611.449 316.996 610.681C316.019 609.943 315.039 609.198 314 608.548L312 607.338C311.012 606.795 310.017 606.273 309 605.786C307.693 605.159 306.365 604.58 305 604.09C304.012 603.736 303.009 603.445 302 603.159C301.016 602.88 300.007 602.646 299 602.464L297 602.174L295 602.039L290 602L285 602.039L283 602.174L281 602.464M681 602.464C679.994 602.646 678.984 602.88 678 603.159C676.993 603.444 675.981 603.722 675 604.09L674 604.464C672.644 605.018 671.307 605.61 670 606.273C668.631 606.967 667.289 607.714 666 608.548C664.969 609.215 663.983 609.941 663.004 610.681C661.641 611.71 660.357 612.86 659.174 614.09C658.289 615.009 657.449 615.986 656.681 617.004C655.943 617.981 655.198 618.961 654.548 620L653.338 622C652.795 622.988 652.273 623.983 651.786 625C651.159 626.307 650.58 627.635 650.09 629C649.736 629.988 649.445 630.991 649.159 632C648.788 633.309 648.494 634.654 648.3 636C647.919 638.645 648 641.335 648 644C648 646.665 647.919 649.355 648.3 652C648.494 653.346 648.788 654.692 649.159 656C649.445 657.009 649.736 658.012 650.09 659C650.58 660.365 651.159 661.693 651.786 663C652.272 664.015 652.782 665.021 653.338 666C654.122 667.382 654.988 668.718 655.927 669.999C657.186 671.716 658.556 673.35 660.09 674.826C661.009 675.71 661.986 676.551 663.004 677.319C663.981 678.057 664.961 678.802 666 679.452L668 680.662C668.988 681.205 669.983 681.727 671 682.214C672.307 682.841 673.635 683.42 675 683.91C675.988 684.264 676.991 684.555 678 684.841C678.984 685.12 679.994 685.354 681 685.536L683 685.826L685 685.961L690 686L695 685.961L697 685.826L699 685.536C700.007 685.354 701.016 685.12 702 684.841C703.007 684.556 704.019 684.278 705 683.91L706 683.536C707.356 682.982 708.693 682.39 710 681.727C711.368 681.033 712.712 680.286 714 679.452C715.031 678.784 716.016 678.059 716.996 677.319C718.359 676.29 719.642 675.14 720.826 673.91C721.71 672.991 722.551 672.014 723.319 670.996C724.057 670.019 724.802 669.039 725.452 668L726.662 666C727.204 665.012 727.727 664.017 728.214 663C728.841 661.693 729.42 660.365 729.91 659C730.264 658.012 730.555 657.009 730.841 656C731.212 654.691 731.506 653.346 731.7 652C732.081 649.354 732 646.665 732 644C732 641.335 732.081 638.645 731.7 636C731.506 634.654 731.212 633.309 730.841 632C730.555 630.991 730.264 629.988 729.91 629C729.42 627.635 728.841 626.307 728.214 625C727.728 623.985 727.218 622.979 726.662 622C725.878 620.618 725.012 619.282 724.073 618.001C722.814 616.284 721.445 614.65 719.91 613.174C718.991 612.289 718.014 611.449 716.996 610.681C716.019 609.943 715.039 609.198 714 608.548L712 607.338C711.012 606.795 710.017 606.273 709 605.786C707.693 605.159 706.365 604.58 705 604.09C704.012 603.736 703.009 603.445 702 603.159C701.016 602.88 700.007 602.646 699 602.464L697 602.174L695 602.039L690 602L685 602.039L683 602.174L681 602.464M774 602.464C772.993 602.646 771.984 602.88 771 603.159C769.991 603.445 768.988 603.736 768 604.09C766.635 604.58 765.307 605.159 764 605.786C762.984 606.273 761.988 606.796 761 607.338L759 608.548C757.962 609.198 756.981 609.943 756.004 610.681C754.641 611.71 753.357 612.86 752.174 614.09C751.289 615.009 750.449 615.986 749.681 617.004C748.941 617.984 748.215 618.969 747.548 620C746.917 620.974 746.344 621.978 745.796 623C745.097 624.302 744.45 625.638 743.877 627C743.33 628.299 742.845 629.624 742.529 631C742.302 631.989 742.171 632.989 742.093 634C742.017 634.998 742.02 636 742.004 637L742 641L742 656L742 671L742.015 676L742.109 677.999L742.228 678.996L742.434 679.985L743.179 681.891L743.742 682.772L745.228 684.258L747.044 685.258L748.015 685.566L749.004 685.768L750.001 685.876L751 685.912L752.996 685.768L754.956 685.258L755.891 684.821L756.772 684.258L758.258 682.772L759.258 680.956L759.772 678.996L759.956 677C760.007 675 760 673 760 671L760 650L760.004 645C760.024 643.329 760.039 641.651 760.329 640C760.762 637.535 761.675 635.128 762.995 633C764.123 631.179 765.532 629.555 767.043 628.043L769.004 626.214L770.001 625.394L771 624.649L773 623.417C774.577 622.557 776.284 621.954 778 621.44C779.317 621.045 780.653 620.735 782 620.464L783 620.3L785 620.09C785.997 620.017 787.001 620.01 788 620.004L793 619.999L795 619.985C795.999 619.953 797.008 619.942 797.996 619.772C799.351 619.538 800.663 619.096 801.772 618.258L803.258 616.772L803.821 615.891L804.258 614.956L804.566 613.985L804.876 611.999L804.876 610.001L804.768 609.004L804.258 607.044L803.258 605.228L802.566 604.434L801.772 603.742L799.956 602.742L798.985 602.434L797.996 602.228L796 602.044C794.335 601.977 792.666 602.001 791 602L782 602C780.332 602.003 778.666 601.997 777 602.09C775.994 602.147 774.991 602.286 774 602.464M922 602.468C920.638 602.73 919.291 603.1 918 603.61C916.607 604.159 915.284 604.867 914 605.633C912.261 606.672 910.576 607.823 909.094 609.21L907.34 611.043L906.558 612.015L905.228 614.001L904.214 616C903.787 616.963 903.444 617.983 903.171 619C902.728 620.647 902.356 622.302 902.174 624C901.995 625.659 902.001 627.334 902.002 629C902.002 630.999 901.982 633.024 902.329 635L902.789 637L903.483 639L904.417 640.999L905.649 642.985L906.394 643.957L907.214 644.895L909.043 646.606L911.004 648.005L913 649.08L914 649.517L916 650.211L918 650.671C919.322 650.904 920.662 650.957 922 650.985L926 651L938 651L942 651.001C942.997 651.004 944.004 650.982 945 651.044L946.999 651.228L947.996 651.434L948.985 651.742L950.891 652.742L952.566 654.228L953.817 656.044L954.242 657.015L954.522 658.004L954.663 659.999L954.242 661.985L953.817 662.956L953.257 663.891L952.566 664.772L950.891 666.258L949.956 666.821L947.996 667.566L946 667.891C944.666 667.984 943.336 667.992 942 667.999L934 668L919 668L916 668.004L915 668.015C913.999 668.056 912.995 668.058 912.004 668.228C910.649 668.462 909.337 668.904 908.228 669.742L906.742 671.228L905.742 673.044L905.434 674.015L905.232 675.004L905.124 676.001L905.124 677.999C905.262 679.702 905.696 681.387 906.742 682.772L908.228 684.258L909.109 684.821L910.044 685.258L911.015 685.566L913.001 685.891C914.334 685.984 915.664 685.992 917 685.999L925 686L941 686L944 685.999C945.333 685.991 946.669 686.003 948 685.91C949.348 685.815 950.685 685.629 952 685.316C953.02 685.074 954.024 684.775 955 684.39C956.393 683.841 957.716 683.133 959 682.367C960.739 681.328 962.424 680.177 963.906 678.79L965.66 676.957L966.442 675.985L967.772 673.999L968.786 672C969.213 671.036 969.556 670.017 969.829 669C970.272 667.353 970.644 665.698 970.826 664C971.005 662.342 970.999 660.666 970.998 659C970.998 657.001 971.018 654.976 970.671 653L970.211 651L969.517 649L968.583 647.001L967.351 645.015L966.606 644.043L965.786 643.105L963.957 641.394L961.996 639.995L960 638.92L959 638.483L957 637.789L955 637.329C953.679 637.097 952.338 637.043 951 637.015L947 637L935 637L931 636.999C930.003 636.996 928.996 637.018 928 636.956L926.001 636.772L925.004 636.566L924.015 636.258L922.109 635.258L920.434 633.772L919.183 631.956L918.758 630.985L918.478 629.996L918.337 628.001L918.758 626.015L919.183 625.044L919.743 624.109L920.434 623.228L922.109 621.742L924.015 620.742C925.905 619.997 928.004 620.032 930 620.004L933 620L938 620L953 620L956 619.999L958 619.985C960.01 619.921 962.091 619.834 963.891 618.821L965.566 617.566L966.821 615.891L967.566 613.985L967.768 612.996L967.876 611.999L967.876 610.001C967.794 608.995 967.632 607.987 967.258 607.044C966.738 605.734 965.899 604.594 964.772 603.742C963.663 602.904 962.351 602.462 960.996 602.228C960.005 602.058 959.001 602.056 958 602.015L957 602.004L954 602L941 602L930 602C927.325 602.004 924.639 601.961 922 602.468M285 621.329C286.647 621.039 288.332 621.008 290 621.008C291.333 621.008 292.675 621.025 294 621.185C295.016 621.308 296.017 621.505 297 621.789L299 622.483L300 622.92L301 623.417L302.999 624.649L303.996 625.394L304.985 626.214L306.895 628.043C308.327 629.541 309.591 631.177 310.583 633L311.517 635L311.891 636L312.211 637L312.671 639L312.815 640L312.907 641L312.985 643C313.013 644.334 312.981 645.668 312.907 647L312.815 648L312.671 649C312.521 650.016 312.228 651.031 311.891 652L311.08 654L310.583 655L309.351 656.999L308.606 657.996L306.895 659.957L304.985 661.786L303.996 662.606L302.999 663.351L301 664.583L299 665.517L297 666.211L295 666.671C293.353 666.961 291.668 666.992 290 666.992C288.667 666.992 287.325 666.975 286 666.815C284.984 666.692 283.983 666.495 283 666.211L281 665.517L280 665.08L279 664.583L277.001 663.351L276.004 662.606L275.015 661.786L273.105 659.957C271.674 658.459 270.409 656.823 269.417 655L268.483 653L268.109 652L267.789 651L267.329 649L267.185 648L267.093 647L267.015 645C266.987 643.666 267.019 642.332 267.093 641L267.185 640L267.329 639C267.479 637.983 267.772 636.969 268.109 636L268.92 634L269.417 633L270.649 631.001L271.394 630.004L273.105 628.043L275.015 626.214L276.004 625.394L277.001 624.649L279 623.417L281 622.483L283 621.789L285 621.329M685 621.329C686.647 621.039 688.332 621.008 690 621.008C691.333 621.008 692.675 621.025 694 621.185C695.016 621.308 696.016 621.505 697 621.789L699 622.483L700 622.92L701 623.417L702.999 624.649L703.996 625.394L704.985 626.214L706.895 628.043C708.327 629.541 709.591 631.177 710.583 633L711.517 635L711.891 636L712.211 637L712.671 639L712.815 640L712.907 641L712.985 643C713.013 644.334 712.981 645.668 712.907 647L712.815 648L712.671 649C712.521 650.017 712.228 651.031 711.891 652L711.08 654L710.583 655L709.351 656.999L708.606 657.996L706.895 659.957L704.985 661.786L703.996 662.606L702.999 663.351L701 664.583L699 665.517L697 666.211L695 666.671C693.353 666.961 691.668 666.992 690 666.992C688.667 666.992 687.325 666.975 686 666.815C684.984 666.692 683.983 666.495 683 666.211L681 665.517L680 665.08L679 664.583L677.001 663.351L676.004 662.606L675.015 661.786L673.105 659.957C671.674 658.459 670.409 656.823 669.417 655L668.483 653L668.109 652L667.789 651L667.329 649L667.185 648L667.093 647L667.015 645C666.987 643.666 667.019 642.332 667.093 641L667.185 640L667.329 639C667.479 637.983 667.772 636.969 668.109 636L668.92 634L669.417 633L670.649 631.001L671.394 630.004L673.105 628.043L675.015 626.214L676.004 625.394L677.001 624.649L679 623.417L681 622.483L683 621.789L685 621.329M846 621.329C847.647 621.039 849.332 621.008 851 621.008C852.333 621.008 853.675 621.025 855 621.185C856.016 621.308 857.017 621.505 858 621.789L860 622.483L861 622.92L862 623.417L863.999 624.649L864.996 625.394L865.985 626.214L867.895 628.043C869.327 629.541 870.591 631.177 871.583 633L872.517 635L872.891 636L873.211 637L873.671 639L873.815 640L873.907 641L873.985 643C874.013 644.334 873.981 645.668 873.907 647L873.815 648L873.671 649C873.521 650.017 873.228 651.031 872.891 652L872.08 654L871.583 655L870.351 656.999L869.606 657.996L867.895 659.957L865.985 661.786L864.996 662.606L863.999 663.351L862 664.583L860 665.517L858 666.211L856 666.671C854.353 666.961 852.668 666.992 851 666.992C849.668 666.992 848.324 666.975 847 666.815C845.984 666.692 844.983 666.495 844 666.211L842 665.517L841 665.08L840 664.583L838.001 663.351L837.004 662.606L836.015 661.786L834.105 659.957C832.674 658.459 831.409 656.823 830.417 655L829.483 653L829.109 652L828.789 651L828.329 649L828.185 648L828.093 647L828.015 645C827.987 643.666 828.019 642.332 828.093 641L828.185 640L828.329 639C828.479 637.983 828.772 636.969 829.109 636L829.92 634L830.417 633L831.649 631.001L832.394 630.004L834.105 628.043L836.015 626.214L837.004 625.394L838.001 624.649L840 623.417L842 622.483L844 621.789L846 621.329z"/>
</svg>
